Jana Cova: Erotique DVD

Digital Playground


Category All Sex, Girl-Girl, HD - Shot In High Def, Straight 
Director Celeste 
Starring Mick Blue, Marco Banderas, Scott Nails, Lexi Love, Harmony, Kelly Kline, Karlie Montana, Sophia Santi, Charlie Laine, Cayton Caley, Jana Cova, Renee Perez, Jamie Lynn

Studio Digital Playground 
Discs 1 
Release Date May 16, 2008
 
http://bayimg.com/laMEIaAdi
 
http://bayimg.com/lAmEKaAdI
 
http://bayimg.com/lamelAAdi

General
Complete name                    : C:\Downloads\Jana Cova Erotique\dvd\Jana Cova Erotique.avi
Format                           : AVI
Format/Info                      : Audio Video Interleave
Format profile                   : OpenDML
File size                        : 1.38 GiB
Duration                         : 2h 28mn
Overall bit rate                 : 1 333 Kbps
Writing application              : MEncoder SVN-r30881(20100311-gcc4.3.3)
Writing library                  : MPlayer

Video
ID                               : 0
Format                           : MPEG-4 Visual
Format profile                   : Advanced Simple@L5
Format settings, BVOP            : 2
Format settings, QPel            : No
Format settings, GMC             : No warppoints
Format settings, Matrix          : Default (H.263)
Codec ID                         : XVID
Codec ID/Hint                    : XviD
Duration                         : 2h 28mn
Bit rate                         : 44.1 Kbps
Width                            : 720 pixels
Height                           : 480 pixels
Display aspect ratio             : 3:2
Frame rate                       : 25.000 fps
Standard                         : NTSC
Color space                      : YUV
Chroma subsampling               : 4:2:0
Bit depth                        : 8 bits
Scan type                        : Progressive
Compression mode                 : Lossy
Bits/(Pixel*Frame)               : 0.005
Stream size                      : 46.7 MiB (3%)
Writing library                  : XviD 1.2.1 (UTC 2008-12-04)

Audio
ID                               : 1
Format                           : MPEG Audio
Codec ID                         : 55
Codec ID/Hint                    : MP3
Duration                         : 2h 28mn
Bit rate                         : 128 Kbps
Channel(s)                       : 2 channels
Sampling rate                    : 44.1 KHz
Compression mode                 : Lossy
Stream size                      : 136 MiB (10%)
Alignment                        : Aligned on interleaves